<svg xmlns="http://www.w3.org/2000/svg" width="300" height="300"><path fill="#FF6F01" d="m149.75-.437 2.385.01C164.49-.351 176.095.479 188 4l2.512.7C208.742 9.85 226.24 18.01 241 30l2.676 2.07C270.793 53.472 288.609 82.601 297 116l.543 2.107c4.973 20.248 4.787 45.773-.543 65.893l-.554 2.252C289.614 213.734 275.67 236.897 256 257l-1.852 2.004C235.844 278.436 209.484 290.598 184 297l-2.107.543c-37.896 9.308-78.95.083-111.893-19.543-10.001-6.215-18.559-13.839-27-22l-2.016-1.86C21.49 235.739 9.484 209.59 3 184l-1.031-3.844c-8.53-38.23.87-79.321 21.262-112.137C29.196 58.819 36.398 50.862 44 43l1.86-2.016c15.863-16.806 38.412-28.716 60.328-35.359l2.26-.686c13.76-3.917 27.04-5.496 41.302-5.376"/><path fill="#FFFBF7" d="M149 33h2a110 110 0 0 1 4.938 6.375l1.472 2.032C169.727 58.667 180.057 77.345 188 97c3.084-1.374 5.193-2.946 7.566-5.336l1.971-1.977c.668-.68 1.337-1.36 2.025-2.062l2.038-2.04c3.71-3.718 3.71-3.718 6.99-7.81L210 76h2c-2.146-4.003-4.558-6.618-8-9.562-3.069-2.635-5.7-5.101-8-8.438 5.158-5.158 21.366-4.2 28.75-5.062l6.624-.785q2.988-.354 5.977-.704a363 363 0 0 0 7.467-1c3.8-.536 7.352-.516 11.182-.449a305 305 0 0 1-2.937 27.875q-.54 3.66-1.075 7.32l-.517 3.525c-.921 6.414-1.712 12.844-2.471 19.28-3.847-1.57-6.203-4.032-9.062-7-2.593-2.682-4.83-4.928-7.938-7v-2c-3.521 1.996-6.5 4.16-9.5 6.875l-2.36 2.133a190 190 0 0 0-4.89 4.742c-2.29 2.29-4.723 4.228-7.25 6.25a267 267 0 0 0-7.312 7.438c-2.77 2.64-5.672 4.822-8.758 7.07-1.76 1.36-3.272 2.762-4.805 4.367L185 133h-2v2c-3.462 3-3.462 3-6 3v2a94 94 0 0 1-5.375 4.125l-3.023 2.195C166 148 166 148 164 148v2c-5.412 4-5.412 4-8 4v2a121 121 0 0 1-6 4q-1.71 1.142-3.41 2.297c-20.266 13.63-20.266 13.63-27.27 16.988-2.662 1.968-3.38 3.772-4.524 6.824-1.387 3.296-3.548 6.035-5.671 8.891l-1.277 1.75a603 603 0 0 1-2.554 3.473 155 155 0 0 0-2.658 3.773c-1.166 1.7-2.396 3.357-3.636 5.004h-2c-2.404 7.213-.71 14.649.938 21.875l.552 2.547c.716 3.26 1.453 6.408 2.51 9.578l2.484-2.082 3.266-2.73 1.633-1.37C116.545 230 116.545 230 119 230c-.982-4.01-1.886-6.814-4.062-10.375-2.383-4.082-3.674-7.874-2.938-12.625 1.904-3.704 4.143-6.965 7-10h2l.563 1.585q1.305 3.648 2.624 7.29l.885 2.492C127.33 214.583 130 219.997 133 226l34 1 2-6a132 132 0 0 1 1.813-4c3.797-8.391 6.71-17.138 9.187-26l1.035-3.5 1.028-3.5 1.035-3.5c1.425-5.527 1.946-10.643 1.867-16.336-.169-18.336-.169-18.336 3.254-22.8C194.229 136 194.229 136 198 136c1.465 2.93 1.13 5.533 1.133 8.8l.003 2.041q0 2.14-.006 4.28c-.005 2.173 0 4.345.007 6.518q0 2.08-.004 4.162l-.004 3.817c-.112 2.948-.468 5.52-1.129 8.382-.868 5.795-.107 8.376 3.36 13.129a336 336 0 0 0 4.39 5.434A637 637 0 0 1 214 203l1.408 1.824c4.27 6.327 3.032 14.395 1.766 21.556q-.555 2.772-1.143 5.538l-.605 2.98c-.632 3.098-1.279 6.194-1.926 9.29l-1.3 6.353A3753 3753 0 0 1 209 266c-5.072 0-6.831-2.076-10.375-5.312q-1.86-1.65-3.727-3.293l-1.934-1.705c-3.73-3.21-7.628-6.203-11.52-9.21-2.258-1.75-4.422-3.458-6.444-5.48-2.127-.367-2.127-.367-4.61-.402l-2.906-.107c-4.428-.102-8.855-.192-13.283-.246q-3.485-.057-6.968-.185c-15.07-1.014-15.07-1.014-28.391 4.836a73 73 0 0 0-4.413 4.531c-2.439 2.583-4.07 3.567-7.429 4.573v2c-2.117 1.945-2.117 1.945-4.875 4.125l-2.742 2.195C97 264 97 264 95 264v2l-4 1a4689 4689 0 0 1-3.845-19.476q-.65-3.308-1.31-6.614c-.635-3.183-1.257-6.368-1.876-9.555l-.597-2.943c-3.256-16.992-3.256-16.992.71-23.408a97 97 0 0 1 2.73-3.441l1.37-1.772A301 301 0 0 1 92 195a450 450 0 0 0 3-4l-2.21.875c-6.843 2.433-12.928 3.553-20.165 3.625l-2.267.055c-6.673-.072-11.016-2.213-15.796-6.993-2.757-6.286-2.535-13.984-.562-20.562h2l.5-2.812c4.453-15.295 23.119-31.357 35.797-40.243 9.442-6.67 14.812-11.305 17.703-22.945a140 140 0 0 1 1.938-5l.988-2.441C120.246 77.122 129.009 60.4 140 45l1.28-1.805C146.479 35.92 146.479 35.92 149 33"/><path fill="#FF7002" d="M149 55c3.495 1.419 4.9 2.923 6.805 6.148l1.51 2.53 1.56 2.697 1.615 2.748c6.56 11.25 12.422 22.649 16.123 35.182l.794 2.679L178 109c-15.98 15.24-15.98 15.24-24.125 21.71a325 325 0 0 0-6.437 5.267c-7.367 6.145-14.902 11.905-22.813 17.335l-2.506 1.726C116.26 159 116.26 159 114 159c-.668-22.318 2.97-42.495 12-63l1.453-3.309c3.235-7.207 6.805-14.206 10.61-21.129l1.209-2.22c2.851-5.107 6.115-9.745 9.728-14.342"/><path fill="#FF7206" d="m102 134-1 34c-19.897 9.948-19.897 9.948-29 9l-2-2c0-7.07 2.697-12.43 7-18h2l.688-1.687c1.683-2.966 3.874-4.926 6.312-7.313.909-.92 1.818-1.84 2.754-2.79.927-.935 1.854-1.87 2.808-2.835l1.42-1.445C99.864 134 99.864 134 102 134"/><path fill="#FF7307" d="M192 198c4.587 1.529 6.283 5.155 9 9l2.375 3.063c3.654 6.605.922 14.813-.375 21.875l-.578 3.228q-.703 3.918-1.422 7.834c-4.003 0-5.488-1.524-8.687-3.875l-3.012-2.18L187 235v-2l-1.875-.937L181 230c.292-4.482 1.177-7.6 3.313-11.562 2.838-5.333 4.36-10.805 5.89-16.63C191 199 191 199 192 198"/></svg>
