<svg xmlns="http://www.w3.org/2000/svg" width="300" height="300"><path fill="#FE5B04" d="m149.375 4.625 2.104.003C182.392 4.755 210.92 13.786 236 32l2.398 1.719C252.721 44.568 264.398 57.896 274 73l1.17 1.819c18.795 29.616 25.58 70.447 17.986 104.786C286.2 207.093 274.512 230.356 255 251l-2.227 2.422c-22.778 23.92-57.052 40.188-90.22 41.74-38.397.446-74.458-6.21-104.553-32.162l-2.656-2.273C52.848 258.53 50.419 256.28 48 254l-2.418-2.187c-23.458-22.079-39.491-56.904-40.708-89.158q-.12-6.014-.124-12.03l-.002-2.165C4.765 137.396 5.281 126.765 8 116l.536-2.17C11.02 104.046 14.404 95.006 19 86l.902-1.82C26.476 70.948 34.833 59.741 45 49l2.637-2.867C59.647 33.36 74.032 24.078 90 17l1.897-.85c18.328-8.1 37.466-11.587 57.478-11.525"/><path fill="#FDF4E0" d="m61 146 1.469 2.71C66.71 156.412 71.282 163.286 77 170l1.887 2.48c13.52 16.119 37.261 24.776 57.55 26.77 3.52.293 7.039.533 10.563.75l3.758.258c24.167.857 48.491-8.8 66.71-24.367C226.47 167.444 232.885 156.624 239 146c5.891 1.55 11.02 4.55 16 8l1 2c-11.065 26.411-34.62 50.077-61 61-28.698 11.394-61.33 11.598-90 0-9.92-4.379-18.6-10.16-27-17l-2.273-1.844C62.21 186.763 52.303 171.44 44 156c2.788-2.976 5.564-5.16 9.063-7.25l2.597-1.578C58 146 58 146 61 146"/></svg>
